<svg xmlns="http://www.w3.org/2000/svg" width="300" height="71" viewBox="0 0 299 71"><path style="stroke:none;fill-rule:nonzero;fill:#656263;fill-opacity:1" d="M103.547 46.059c0 3.125-1.285 5.695-3.863 7.699-2.575 2.012-6.098 3.008-10.563 3.008-2.523 0-4.84-.309-6.95-.903-2.109-.61-3.874-1.27-5.3-1.984V47.41h.309a22.68 22.68 0 0 0 6.043 3.258c2.226.82 4.351 1.219 6.39 1.219 2.532 0 4.504-.407 5.93-1.227 1.426-.824 2.137-2.101 2.137-3.86 0-1.35-.383-2.37-1.16-3.073-.774-.696-2.258-1.29-4.461-1.782a93.884 93.884 0 0 0-3.196-.636 53.411 53.411 0 0 1-3.586-.805c-3-.79-5.125-1.969-6.375-3.508-1.254-1.535-1.882-3.441-1.882-5.687 0-1.414.293-2.735.87-3.989.587-1.25 1.462-2.363 2.645-3.343 1.14-.961 2.594-1.723 4.36-2.282 1.761-.566 3.726-.843 5.91-.843 2.035 0 4.101.246 6.191.753 2.082.504 3.824 1.106 5.211 1.82v6.165h-.309c-1.464-1.082-3.25-1.996-5.347-2.746-2.098-.746-4.156-1.117-6.176-1.117-2.098 0-3.867.402-5.316 1.207-1.446.812-2.168 2.011-2.168 3.605 0 1.414.441 2.473 1.316 3.188.852.714 2.238 1.3 4.156 1.753 1.059.247 2.246.489 3.555.73 1.32.25 2.41.474 3.285.677 2.672.62 4.727 1.664 6.176 3.168 1.441 1.504 2.168 3.508 2.168 6.004m31.387-7.239c0-4.43-.864-7.73-2.594-9.886-1.735-2.164-4.137-3.239-7.211-3.239-3.121 0-5.543 1.075-7.262 3.239-1.722 2.156-2.582 5.457-2.582 9.886 0 4.293.863 7.555 2.602 9.77 1.73 2.226 4.14 3.328 7.242 3.328 3.05 0 5.453-1.098 7.195-3.297 1.742-2.2 2.61-5.469 2.61-9.8Zm5.93 0c0 5.582-1.423 9.989-4.278 13.22-2.848 3.233-6.676 4.85-11.457 4.85-4.832 0-8.664-1.617-11.504-4.85-2.844-3.231-4.27-7.638-4.27-13.22 0-5.578 1.426-9.992 4.27-13.238 2.84-3.23 6.672-4.855 11.504-4.855 4.781 0 8.61 1.625 11.457 4.855 2.855 3.246 4.277 7.66 4.277 13.238m27.258-25.023h-.3c-.63-.184-1.462-.371-2.477-.57-1.016-.192-1.914-.29-2.692-.29-2.46 0-4.25.543-5.363 1.645-1.105 1.09-1.664 3.07-1.664 5.93v1.16h10.36v4.855h-10.176v29.407h-5.746V26.527h-3.88v-4.855h3.88v-1.129c0-4.07 1.007-7.184 3.023-9.371 2.023-2.172 4.93-3.266 8.742-3.266 1.285 0 2.442.063 3.469.188 1.027.117 1.973.27 2.824.426v5.277m21.367 41.828a29.144 29.144 0 0 1-3.535.707c-1.27.184-2.402.285-3.406.285-3.48 0-6.133-.949-7.942-2.828-1.816-1.887-2.722-4.894-2.722-9.047V26.527H168v-4.855h3.883v-9.84h5.746v9.84h11.86v4.855h-11.86v15.606c0 1.8.043 3.207.125 4.219.074.992.363 1.96.851 2.832.45.82 1.067 1.421 1.852 1.8.781.38 1.98.567 3.598.567.93 0 1.91-.145 2.925-.418 1.02-.274 1.754-.5 2.204-.692h.304v5.184m12.742.309h-5.746V8.21h5.743v47.723m17.183 0h-5.746V21.672h5.742Zm.363-39.993h-6.476V9.965h6.476v5.976m39.543 39.993h-5.742V36.43c0-1.57-.09-3.055-.277-4.438-.18-1.375-.52-2.457-1.008-3.234-.508-.86-1.238-1.492-2.195-1.914-.961-.418-2.203-.625-3.73-.625-1.571 0-3.212.386-4.923 1.164a24.6 24.6 0 0 0-4.921 2.98v25.57h-5.747V21.673h5.747v3.812c1.796-1.496 3.644-2.664 5.558-3.507 1.922-.829 3.883-1.254 5.902-1.254 3.688 0 6.5 1.113 8.434 3.347 1.934 2.227 2.902 5.434 2.902 9.63v22.234m34.047-20.946c-.02-3.027-.781-5.367-2.27-7.023-1.5-1.656-3.78-2.48-6.831-2.48-3.082 0-5.532.902-7.352 2.722-1.828 1.824-2.86 4.086-3.11 6.781Zm5.59 4.418h-25.152c0 2.106.316 3.934.949 5.5.629 1.559 1.5 2.852 2.598 3.856 1.062.984 2.316 1.71 3.777 2.207 1.457.484 3.063.738 4.809.738 2.328 0 4.668-.473 7.02-1.398 2.35-.938 4.026-1.848 5.023-2.746h.308v6.285a46.87 46.87 0 0 1-5.93 2.054c-2.015.555-4.136.832-6.359.832-5.66 0-10.082-1.539-13.254-4.617-3.183-3.082-4.773-7.449-4.773-13.11 0-5.609 1.523-10.05 4.566-13.343 3.05-3.293 7.059-4.937 12.027-4.937 4.606 0 8.157 1.351 10.653 4.05 2.492 2.696 3.738 6.532 3.738 11.496v3.133"/><path style="stroke:none;fill-rule:nonzero;fill:#c4161d;fill-opacity:1" d="M51.563 18.914c-2.126 1.578-2.57 4.59-1 6.723a4.786 4.786 0 0 0 6.707.996 4.818 4.818 0 0 0 .996-6.723 4.772 4.772 0 0 0-6.703-.996m4.71 15.168a6.303 6.303 0 0 0-1.3 8.805 6.263 6.263 0 0 0 4.113 2.476 6.252 6.252 0 0 0 4.652-1.172 6.298 6.298 0 0 0 1.301-8.796 6.252 6.252 0 0 0-8.766-1.313m-9.59 16.672c-3.48 2.582-4.203 7.5-1.628 10.996 2.578 3.484 7.488 4.219 10.96 1.637 3.477-2.594 4.212-7.52 1.63-11.004a7.833 7.833 0 0 0-5.145-3.094 7.82 7.82 0 0 0-5.816 1.465m-24.391 3.125c-4.191 3.117-5.07 9.055-1.965 13.262a9.427 9.427 0 0 0 13.219 1.968c4.191-3.12 5.07-9.05 1.965-13.27-3.11-4.194-9.028-5.081-13.219-1.96M4.621 30.824c-5.066 3.77-6.129 10.938-2.379 16.024 3.766 5.09 10.91 6.148 15.977 2.375 5.07-3.766 6.129-10.934 2.375-16.024-3.758-5.082-10.907-6.148-15.973-2.37M22.043 2.913c-6.36 4.738-7.695 13.734-2.977 20.121 4.711 6.375 13.688 7.715 20.043 2.977 6.36-4.727 7.692-13.73 2.977-20.106C37.367-.48 28.398-1.809 22.043 2.914"/></svg>